<?xml version="1.0" encoding="utf-8"?>
<!-- Generator: Adobe Illustrator 24.0.2, SVG Export Plug-In . SVG Version: 6.00 Build 0)  -->
<svg version="1.1" id="Capa_1" xmlns="http://www.w3.org/2000/svg" xmlns:xlink="http://www.w3.org/1999/xlink" x="0px" y="0px"
	 width="512px" height="512px" viewBox="0 0 512 512" style="enable-background:new 0 0 512 512;" xml:space="preserve">
<style type="text/css">
	.st0{fill:#797684;}
</style>
<g id="Speech_Bubble_48_">
	<g>
		<path class="st0" d="M74.5,481.4H38.2l25.7-25.7c13.8-13.8,22.5-31.8,24.8-51.3c-36.1-23.7-62.5-54.9-76.6-90.6
			c-14.1-35.7-15.9-75-5.1-113.7c12.9-46.4,43.2-88.7,85.3-119.1C138,48,194.9,30.6,256.9,30.6c78.1,0,143.9,22.4,190.3,64.9
			C489,133.7,512,185.2,512,240.7c0,26.9-5.5,53.1-16.3,77.8c-11.2,25.6-27.6,48.4-48.7,67.7c-46.5,42.6-112.2,65.1-190.2,65.1
			c-28.9,0-59.1-3.9-86.1-10.9C145.3,466.6,110.7,481.4,74.5,481.4L74.5,481.4z M256.9,60.6c-124.3,0-200.5,74.1-221,147.6
			c-19.3,69.4,9.2,135,76.2,175.4l7.5,4.5l-0.2,8.7c-0.5,17.3-4.6,34-12,49c18-6.1,34.3-17.1,47.1-32.2l6.4-7.5l9.4,2.8
			c26.4,7.9,57.2,12.3,86.6,12.3c154.7,0,225.1-93.6,225.1-180.6c0-46.9-19.6-90.5-55.1-123C386.1,80.4,327.3,60.6,256.9,60.6
			L256.9,60.6z"/>
	</g>
</g>
</svg>
