<?xml version="1.0" encoding="utf-8"?>
<!-- Generator: Adobe Illustrator 24.0.2, SVG Export Plug-In . SVG Version: 6.00 Build 0)  -->
<svg version="1.1" id="Layer_1" xmlns="http://www.w3.org/2000/svg" xmlns:xlink="http://www.w3.org/1999/xlink" x="0px" y="0px"
	 width="512px" height="512px" viewBox="0 0 512 512" style="enable-background:new 0 0 512 512;" xml:space="preserve">
<style type="text/css">
	.st0{fill:#797684;}
</style>
<path class="st0" d="M178,100c0-11,9-20,20-20h168c44.1,0,80,35.9,80,80v163c0,11-9,20-20,20s-20-9-20-20V160c0-22.1-17.9-40-40-40
	H198C187,120,178,111,178,100z M506,342.8c-7.9-7.8-20.5-7.7-28.3,0.2l-44.5,45.1c-1.9,1.9-4.4,2.9-7,2.9c0,0,0,0,0,0
	c-2.6,0-5.1-1-7-2.9l-45.1-45.2c-7.8-7.8-20.5-7.8-28.3,0s-7.8,20.5,0,28.3l45.1,45.2c9.4,9.5,22,14.7,35.3,14.7h0
	c13.4,0,25.9-5.2,35.4-14.8l44.6-45.2C514,363.2,513.9,350.5,506,342.8z M312,392H146c-22.1,0-40-17.9-40-40V184c0-11-9-20-20-20
	s-20,9-20,20v168c0,44.1,35.9,80,80,80h166c11,0,20-9,20-20S323,392,312,392z M85.7,120L85.7,120c2.6,0,5.1,1,7,2.9l45.1,45.2
	c3.9,3.9,9,5.9,14.2,5.9c5.1,0,10.2-1.9,14.1-5.8c7.8-7.8,7.8-20.5,0-28.3l-45.1-45.2c-9.4-9.5-22-14.7-35.4-14.7
	c-13.4,0-25.9,5.2-35.4,14.8L5.8,140c-7.8,7.9-7.7,20.5,0.2,28.3c7.9,7.8,20.5,7.7,28.3-0.2l44.5-45.1C80.6,121,83.1,120,85.7,120z"
	/>
</svg>
